EMG
version=1
nRows=38
nColumns=17
inDegrees=no
endheader
time	_right_gast_med	_right_glut_max	_left_gast_med	_left_glut_max	_right_glut_med	_right_bic_fem	_right_rect_fem	_right_vast_lat	_right_vast_med	_right_tens_fasc_lat	_left_glut_med	_left_bic_fem	_left_rect_fem	_left_vast_lat	_left_vast_med	_left_tens_fasc_lat
      1.83000000	      2.27819324	      0.00160219	      0.01243289	      0.03928896	      0.02372148	      0.01304555	      0.02973866	      0.01204263	      0.04192023	      0.01193010	     -0.01306095	      0.00888629	      0.02428013	      0.00165876	      0.03553915	      0.03972531
      1.84000000	      1.85636759	      0.02644906	      0.01135253	      0.00672516	     -0.00475401	      0.02754512	      0.02514040	      0.03202542	      0.03011605	      0.01205508	     -0.02201220	      0.00351959	      0.00901360	      0.00285989	     -0.03702544	      0.03524090
      1.85000000	     -1.00599861	      0.12133194	      0.00039295	     -0.00098134	     -0.02511441	      0.02871784	      0.01467493	      0.03969954	      0.02240418	      0.01303097	     -0.02825699	      0.00415875	      0.00628422	      0.01090271	     -0.04333498	      0.02044632
      1.86000000	     -3.10807443	      0.21735930	      0.00241282	     -0.00283048	     -0.02187288	      0.02188203	      0.00437278	      0.04378473	      0.02062631	      0.01167062	     -0.01934490	      0.00875300	      0.00992545	      0.00943530	      0.00845736	      0.01958548
      1.87000000	     -2.51259232	      0.24435402	      0.00430028	     -0.00540926	     -0.00950916	      0.01577965	      0.00114203	      0.04206305	      0.01798566	      0.00573606	     -0.00133011	      0.01032449	      0.01640822	      0.00083546	      0.02546234	      0.02484915
      1.88000000	     -0.77518773	      0.14656918	      0.00599453	     -0.00934622	      0.01632521	      0.01506939	      0.00050956	      0.03626580	      0.01315491	      0.00249604	      0.00650138	      0.00551420	      0.01857464	     -0.00606894	     -0.01010935	      0.01934774
      1.89000000	      0.33307588	      0.08148104	      0.03261447	     -0.04493498	      0.04258737	      0.01707882	      0.00551957	      0.02226808	      0.01356582	      0.00449845	      0.01177606	      0.00246330	      0.01045198	     -0.00054083	     -0.04801186	     -0.00283199
      1.90000000	      0.64308172	      0.10486623	      0.03004881	     -0.10863111	      0.03755805	      0.01425140	      0.00856274	      0.00374142	      0.01276123	      0.00440618	      0.01286657	      0.00826900	      0.00487257	      0.01093848	     -0.04391089	     -0.03370767
      1.91000000	      0.64045191	      0.05147333	     -0.03762420	     -0.06994858	      0.02150024	      0.00908298	      0.00922117	     -0.00300337	      0.00439931	      0.00262978	      0.00533729	      0.01339575	      0.00761724	      0.01124751	     -0.00134048	     -0.04115398
      1.92000000	      0.55869997	     -0.10547739	     -0.02021196	      0.05638651	      0.01014229	      0.00557549	      0.01220936	     -0.00405498	     -0.00810371	     -0.00012962	      0.00259311	      0.01456200	      0.01066065	      0.00435419	      0.03042588	     -0.02072863
      1.93000000	      0.46206638	     -0.15787621	      0.02047321	      0.09833666	     -0.00441020	      0.00421083	      0.01428203	     -0.00569581	     -0.01087196	     -0.00332126	      0.00786472	      0.01211614	      0.01537506	     -0.00160096	      0.02351300	     -0.01514789
      1.94000000	      0.36931130	     -0.09889504	      0.03255273	      0.04420882	     -0.00968316	      0.00271056	      0.01141885	     -0.00777564	     -0.00943381	     -0.00391465	      0.01949627	      0.00593284	      0.00962957	     -0.00943060	      0.01139762	     -0.02062807
      1.95000000	      0.28796235	     -0.02819090	      0.03894763	      0.01523138	     -0.00287129	      0.00273859	      0.00688292	     -0.01115779	     -0.00440061	     -0.00353586	      0.02770700	     -0.00151625	     -0.00311659	     -0.01434462	      0.02145954	      0.00462454
      1.96000000	      0.21907461	     -0.00234010	     -0.04169222	      0.03831323	      0.00101326	     -0.00253601	      0.00493798	     -0.01273365	      0.00272720	      0.00135106	      0.02447173	      0.00133229	     -0.00297881	     -0.00860774	      0.03257062	      0.04094449
      1.97000000	      0.16153319	     -0.00138021	      0.00005136	      0.08925108	      0.00510931	     -0.00268559	      0.00423496	     -0.00832945	      0.00210503	      0.00930011	      0.01740632	      0.00819826	      0.00850369	      0.00251885	      0.01796789	      0.04821711
      1.98000000	      0.11876826	     -0.01039412	      0.02357146	      0.28974637	      0.01348539	      0.00578583	      0.00130970	     -0.00290079	     -0.00038581	      0.01760652	      0.01030932	      0.00811644	      0.01770946	      0.01130806	     -0.03333151	      0.02924627
      1.99000000	      0.08740734	     -0.01445499	      0.02719536	      0.36555186	      0.01960625	      0.00584683	     -0.00159812	     -0.00276908	      0.00298989	      0.01954333	      0.01106454	      0.00250656	      0.01925932	      0.02416451	     -0.06515192	      0.01365521
      2.00000000	      0.06735052	     -0.00372158	      0.03194783	     -0.02732164	      0.01726517	      0.00492043	     -0.00488012	     -0.00159243	      0.00330821	      0.01375746	      0.01071360	      0.00538727	      0.01731600	      0.02599814	     -0.02250021	      0.01235631
      2.01000000	      0.04767306	      0.00355582	     -0.04896152	     -0.10392785	      0.01586230	      0.01050392	      0.00082770	      0.00958240	      0.00235759	      0.00916303	      0.00370298	      0.01842117	      0.00990317	     -0.00814718	      0.04915413	      0.00938049
      2.02000000	      0.02905371	      0.00076919	     -0.00535772	     -0.01838497	      0.02024948	      0.01320473	      0.01537835	      0.01940539	     -0.00186762	      0.00619113	      0.00112881	      0.02844113	      0.00369973	     -0.01879567	      0.07465874	      0.00271665
      2.03000000	      0.02001091	      0.00018915	      0.03082573	      0.00023114	      0.02128657	      0.01250637	      0.01826355	      0.01751209	     -0.01067344	      0.00744331	     -0.00074057	      0.03258120	      0.00271912	      0.01028566	      0.04384575	      0.00242228
      2.04000000	      0.00661148	      0.00237286	     -0.00779176	      0.00113283	      0.02026471	      0.01426272	      0.01457706	      0.00924759	     -0.01929049	      0.01677864	      0.00037520	      0.02727023	     -0.00052254	      0.02524702	      0.00611458	     -0.00026399
      2.05000000	     -0.00715700	     -0.00093941	      0.03498825	      0.02427641	      0.01732422	      0.02364218	      0.00702726	      0.01941683	     -0.02190056	      0.02006562	      0.00278427	      0.01541942	      0.00162776	      0.01521200	      0.00001849	      0.00933958
      2.06000000	     -0.00743758	     -0.00451821	     -0.00758564	      0.06227496	      0.01413413	      0.02098414	      0.00738580	      0.03181060	     -0.00259807	      0.01547785	      0.00741251	      0.00676140	      0.00962717	     -0.00066865	      0.01442741	      0.03976024
      2.07000000	      0.00414971	      0.00458012	     -0.01778302	      0.07510019	      0.00999476	      0.02814082	      0.00995204	      0.03538550	      0.00394781	      0.00770546	      0.01699452	      0.00865148	      0.01173981	      0.00481516	      0.02334778	      0.04380260
      2.08000000	      0.00399950	      0.03378712	     -0.00710320	      0.06381679	      0.00111231	      0.03129703	      0.00723038	      0.06956259	     -0.12388861	      0.01446028	      0.01834147	      0.01379394	      0.00892638	      0.00841078	      0.00878377	      0.03046867
      2.09000000	     -0.01034316	      0.05464499	      0.01523332	      0.05071684	     -0.00003712	      0.02648429	      0.01823021	      0.04329432	     -0.45911607	      0.01769072	      0.01660868	      0.01630803	      0.00594194	      0.00362262	     -0.01470802	      0.02118062
      2.10000000	     -0.02213921	      0.00887521	      0.01826269	      0.03478854	      0.00334842	      0.00884377	      0.05270342	     -0.02704728	     -0.64201051	      0.02117518	      0.01517037	      0.01041444	      0.00557355	      0.00012618	     -0.02743347	      0.01340748
      2.11000000	     -0.01946207	     -0.03931585	      0.02126735	      0.01467457	      0.00523339	      0.00773352	      0.07973598	     -0.03536965	     -0.26615936	      0.04095949	      0.01491031	     -0.00434369	      0.00937404	      0.00609463	     -0.02381822	      0.00858174
      2.12000000	     -0.01532851	     -0.03690827	      0.03771492	     -0.00268007	      0.00647006	      0.02776159	      0.01521131	      0.01400683	      0.31411028	      0.04921590	      0.01148679	     -0.01318003	      0.00578143	      0.01676196	     -0.00482093	      0.00256845
      2.13000000	     -0.01337440	     -0.02623178	      0.00224539	     -0.01001096	      0.00284574	      0.01802322	     -0.05021914	      0.06620158	      0.59999841	      0.04438727	      0.00963177	     -0.01753212	      0.00398001	      0.01307584	      0.01345849	     -0.00281445
      2.14000000	     -0.00532248	     -0.01570505	     -0.01266679	     -0.01918680	     -0.00017003	     -0.01003921	     -0.06352798	      0.06836254	      0.53240323	      0.00941749	      0.00764056	     -0.01799925	      0.00877212	      0.01305855	      0.01912053	     -0.01222778
      2.15000000	     -0.00909324	     -0.00352439	     -0.00181396	     -0.04963504	      0.00331151	     -0.00914707	     -0.04774642	      0.02838708	      0.27945665	     -0.04356205	      0.00723492	     -0.01135855	      0.01212706	      0.01780201	      0.01498533	     -0.02219558
      2.16000000	     -0.11299650	      0.01344097	      0.00624962	     -0.09359824	      0.00038608	      0.00262122	     -0.02533228	     -0.02746829	      0.07567705	     -0.06567772	      0.00864565	      0.00067831	      0.01041272	      0.01275925	      0.01250784	     -0.01834071
      2.17000000	     -0.15856545	      0.04148154	      0.01194868	     -0.13613591	     -0.00936646	      0.02179535	     -0.00564136	     -0.05554158	      0.05655845	     -0.04507286	      0.00993614	      0.01196611	      0.00608547	      0.00789662	      0.01736447	     -0.01034261
      2.18000000	      0.06618483	      0.07277005	      0.01412474	     -0.15598823	     -0.00311388	      0.00950329	      0.02457953	     -0.08195508	      0.04548878	     -0.02151198	      0.01046944	      0.01957989	      0.00302769	      0.01105563	      0.02782859	     -0.01149739
      2.19000000	      0.10275650	      0.07528500	      0.01058300	     -0.13804944	      0.00430989	     -0.00305840	      0.02913195	     -0.01227781	      0.00463149	      0.00825084	      0.00635863	      0.02027051	      0.00572800	      0.01673639	      0.01441846	     -0.01746082
      2.20000000	      0.03505206	      0.02015774	      0.00396895	     -0.10855712	      0.00551682	     -0.00539766	      0.01801134	      0.05459110	      0.03548232	      0.04813303	      0.00567089	      0.01325308	      0.01776557	      0.01498373	     -0.00409441	     -0.00797590
